<?xml version="1.0" encoding="UTF-8" standalone="no"?>
<!-- Created with Inkscape (http://www.inkscape.org/) -->

<svg
   xmlns:dc="http://purl.org/dc/elements/1.1/"
   xmlns:cc="http://creativecommons.org/ns#"
   xmlns:rdf="http://www.w3.org/1999/02/22-rdf-syntax-ns#"
   xmlns:svg="http://www.w3.org/2000/svg"
   xmlns="http://www.w3.org/2000/svg"
   xmlns:sodipodi="http://sodipodi.sourceforge.net/DTD/sodipodi-0.dtd"
   xmlns:inkscape="http://www.inkscape.org/namespaces/inkscape"
   width="196.75375mm"
   height="55.220097mm"
   viewBox="0 0 196.75375 55.220097"
   version="1.1"
   id="svg8"
   inkscape:version="0.92.3 (2405546, 2018-03-11)"
   sodipodi:docname="CountdownLogo.svg">
  <defs
     id="defs2" />
  <sodipodi:namedview
     id="base"
     pagecolor="#ffffff"
     bordercolor="#666666"
     borderopacity="1.0"
     inkscape:pageopacity="0.0"
     inkscape:pageshadow="2"
     inkscape:zoom="0.7"
     inkscape:cx="138.14558"
     inkscape:cy="148.9993"
     inkscape:document-units="mm"
     inkscape:current-layer="layer1"
     showgrid="false"
     inkscape:snap-object-midpoints="true"
     inkscape:snap-bbox="true"
     inkscape:bbox-paths="true"
     inkscape:bbox-nodes="true"
     inkscape:snap-bbox-edge-midpoints="true"
     inkscape:snap-bbox-midpoints="true"
     inkscape:pagecheckerboard="true"
     fit-margin-top="8"
     fit-margin-left="8"
     fit-margin-right="8"
     fit-margin-bottom="8"
     inkscape:window-width="2048"
     inkscape:window-height="1128"
     inkscape:window-x="0"
     inkscape:window-y="24"
     inkscape:window-maximized="1" />
  <metadata
     id="metadata5">
    <rdf:RDF>
      <cc:Work
         rdf:about="">
        <dc:format>image/svg+xml</dc:format>
        <dc:type
           rdf:resource="http://purl.org/dc/dcmitype/StillImage" />
        <dc:title></dc:title>
      </cc:Work>
    </rdf:RDF>
  </metadata>
  <g
     inkscape:label="Layer 1"
     inkscape:groupmode="layer"
     id="layer1"
     transform="translate(-9.6168436,-66.319354)">
    <path
       inkscape:connector-curvature="0"
       id="path831"
       style="font-style:normal;font-variant:normal;font-weight:bold;font-stretch:normal;font-size:medium;line-height:1.25;font-family:'Tw Cen MT';-inkscape-font-specification:'Tw Cen MT';letter-spacing:0px;word-spacing:0px;fill:#000000;fill-opacity:1;stroke:none;stroke-width:0.26458332"
       d="m 44.906157,100.29532 q 0,-3.632615 2.318305,-5.932665 2.318304,-2.30005 5.950923,-2.30005 3.377058,0 5.658853,2.354813 2.30005,2.336559 2.30005,5.804892 0,3.54134 -2.30005,5.8779 -2.281795,2.33656 -5.73187,2.33656 -3.88818,0 -6.042196,-2.46434 -2.154015,-2.48259 -2.154015,-5.67711 z m 11.628031,0 q 0,-1.588126 -1.040499,-2.77466 -1.040498,-1.186533 -2.42783,-1.186533 -1.442095,0 -2.482594,1.113516 -1.040499,1.113516 -1.040499,2.665137 0,1.69766 1.022245,2.88419 1.040499,1.18653 2.500848,1.18653 1.387332,0 2.42783,-1.15002 1.040499,-1.16828 1.040499,-2.73816 z" />
    <path
       inkscape:connector-curvature="0"
       id="path833"
       style="font-style:normal;font-variant:normal;font-weight:bold;font-stretch:normal;font-size:medium;line-height:1.25;font-family:'Tw Cen MT';-inkscape-font-specification:'Tw Cen MT';letter-spacing:0px;word-spacing:0px;fill:#000000;fill-opacity:1;stroke:none;stroke-width:0.26458332"
       d="m 65.131994,92.445947 h 4.746135 v 7.520798 q 0,1.624635 0.821447,2.719905 0.8397,1.077 2.062743,1.077 1.29606,0 2.172269,-1.0405 0.894464,-1.05875 0.894464,-2.64688 v -7.630323 h 4.746135 v 9.127183 q 0,2.90244 -2.227032,4.87392 -2.208778,1.95321 -5.512819,1.95321 -3.504838,0 -5.60409,-1.97147 -2.099252,-1.97147 -2.099252,-5.239 z" />
    <path
       inkscape:connector-curvature="0"
       id="path835"
       style="font-style:normal;font-variant:normal;font-weight:bold;font-stretch:normal;font-size:medium;line-height:1.25;font-family:'Tw Cen MT';-inkscape-font-specification:'Tw Cen MT';letter-spacing:0px;word-spacing:0px;fill:#000000;fill-opacity:1;stroke:none;stroke-width:0.26458332"
       d="m 90.049203,92.409438 v 1.861945 q 2.391322,-2.245287 5.01995,-2.245287 2.245287,0 3.705636,1.843691 1.478601,1.843691 1.478601,4.709627 v 9.528776 h -4.746132 v -8.780347 q 0,-1.350824 -0.748429,-2.281796 -0.730175,-0.930973 -1.788928,-0.930973 -1.277805,0 -2.099252,1.186534 -0.821446,1.168279 -0.821446,3.030222 v 7.77636 H 85.376085 V 92.409438 Z" />
    <path
       inkscape:connector-curvature="0"
       id="path837"
       style="font-style:normal;font-variant:normal;font-weight:bold;font-stretch:normal;font-size:medium;line-height:1.25;font-family:'Tw Cen MT';-inkscape-font-specification:'Tw Cen MT';letter-spacing:0px;word-spacing:0px;fill:#000000;fill-opacity:1;stroke:none;stroke-width:0.26458332"
       d="m 104.85349,87.0244 h 4.67312 v 5.385038 h 2.24529 v 4.289776 h -2.24529 v 11.408976 h -4.67312 V 96.699214 h -1.78893 v -4.289776 h 1.78893 z" />
    <path
       inkscape:connector-curvature="0"
       id="path839"
       style="font-style:normal;font-variant:normal;font-weight:bold;font-stretch:normal;font-size:medium;line-height:1.25;font-family:'Tw Cen MT';-inkscape-font-specification:'Tw Cen MT';letter-spacing:0px;word-spacing:0px;fill:#000000;fill-opacity:1;stroke:none;stroke-width:0.26458332"
       d="m 124.98806,88.841293 h 4.70962 v 24.369577 h -4.6001 v -2.68339 h -0.073 q -2.04449,2.93895 -5.07472,2.93895 -2.70164,0 -4.61835,-2.35481 -1.89846,-2.35481 -1.89846,-5.75012 0,-3.39532 1.97148,-5.78664 1.97147,-2.409576 4.72788,-2.409576 1.56987,0 2.64688,0.58414 1.07701,0.565885 2.20878,1.861945 z m -3.45008,12.960597 q -1.15002,0 -2.15401,1.05876 -1.00399,1.05875 -1.00399,2.86593 0,1.4421 0.87621,2.46434 0.89446,1.02225 2.15401,1.02225 1.49686,0 2.50085,-1.09527 1.00399,-1.11351 1.00399,-2.7564 0,-1.42385 -0.98573,-2.4826 -0.96749,-1.07701 -2.39133,-1.07701 z" />
    <path
       inkscape:connector-curvature="0"
       id="path841"
       style="font-style:normal;font-variant:normal;font-weight:bold;font-stretch:normal;font-size:medium;line-height:1.25;font-family:'Tw Cen MT';-inkscape-font-specification:'Tw Cen MT';letter-spacing:0px;word-spacing:0px;fill:#000000;fill-opacity:1;stroke:none;stroke-width:0.26458332"
       d="m 133.98746,105.398 q 0,-3.63262 2.3183,-5.932666 2.31831,-2.30005 5.95092,-2.30005 3.37706,0 5.65886,2.354813 2.30005,2.336563 2.30005,5.804893 0,3.54134 -2.30005,5.8779 -2.2818,2.33656 -5.73187,2.33656 -3.88818,0 -6.0422,-2.46434 -2.15401,-2.48259 -2.15401,-5.67711 z m 11.62803,0 q 0,-1.58813 -1.0405,-2.77466 -1.0405,-1.18653 -2.42783,-1.18653 -1.4421,0 -2.4826,1.11351 -1.04049,1.11352 -1.04049,2.66514 0,1.69766 1.02224,2.88419 1.0405,1.18653 2.50085,1.18653 1.38733,0 2.42783,-1.15002 1.0405,-1.16828 1.0405,-2.73816 z" />
    <path
       inkscape:connector-curvature="0"
       id="path843"
       style="font-style:normal;font-variant:normal;font-weight:bold;font-stretch:normal;font-size:medium;line-height:1.25;font-family:'Tw Cen MT';-inkscape-font-specification:'Tw Cen MT';letter-spacing:0px;word-spacing:0px;fill:#000000;fill-opacity:1;stroke:none;stroke-width:0.26458332"
       d="m 151.73071,97.512117 h 4.92868 l 4.21675,9.309723 3.74215,-9.309723 h 3.03022 l 3.70564,9.236713 4.18025,-9.236713 h 4.92868 l -7.13746,15.698753 h -3.77865 l -3.39531,-8.59781 -3.46833,8.59781 h -3.81517 z" />
    <path
       inkscape:connector-curvature="0"
       id="path845"
       style="font-style:normal;font-variant:normal;font-weight:bold;font-stretch:normal;font-size:medium;line-height:1.25;font-family:'Tw Cen MT';-inkscape-font-specification:'Tw Cen MT';letter-spacing:0px;word-spacing:0px;fill:#000000;fill-opacity:1;stroke:none;stroke-width:0.26458332"
       d="m 188.16641,97.512117 v 1.861945 q 2.39132,-2.245287 5.01995,-2.245287 2.24529,0 3.70564,1.843691 1.4786,1.843694 1.4786,4.709624 v 9.52878 h -4.74613 v -8.78035 q 0,-1.35082 -0.74843,-2.28179 -0.73018,-0.93098 -1.78893,-0.93098 -1.2778,0 -2.09925,1.18654 -0.82145,1.16828 -0.82145,3.03022 v 7.77636 H 183.4933 V 97.512117 Z" />
    <path
       style="opacity:1;fill:none;fill-opacity:0;stroke:#000000;stroke-width:5;stroke-miterlimit:4;stroke-dasharray:none;stroke-dashoffset:0;stroke-opacity:0.96078431"
       id="path821"
       sodipodi:type="arc"
       sodipodi:cx="34.384941"
       sodipodi:cy="91.374229"
       sodipodi:rx="14.269608"
       sodipodi:ry="14.572516"
       sodipodi:start="1.0471976"
       sodipodi:end="5.3721234"
       d="M 41.519744,103.9944 A 14.269608,14.572516 0 0 1 23.048956,100.22522 14.269608,14.572516 0 0 1 24.330087,81.033998 14.269608,14.572516 0 0 1 43.130884,79.859682"
       sodipodi:open="true" />
    <circle
       style="opacity:1;fill:#000000;fill-opacity:1;stroke:none;stroke-width:5;stroke-miterlimit:4;stroke-dasharray:none;stroke-dashoffset:0;stroke-opacity:0.96078431"
       id="path826"
       cx="34.384941"
       cy="91.374229"
       r="3.107008" />
    <path
       style="fill:none;stroke:#000000;stroke-width:3.5;stroke-linecap:butt;stroke-linejoin:miter;stroke-miterlimit:4;stroke-dasharray:none;stroke-opacity:1"
       d="m 34.38494,91.374229 -6.698184,-6.60786"
       id="path886"
       inkscape:connector-curvature="0" />
  </g>
</svg>
